<svg width="41" height="40" viewBox="0 0 41 40" fill="none" xmlns="http://www.w3.org/2000/svg">
<path d="M23.8546 39.6713C23.7741 39.686 23.6937 39.6994 23.6133 39.7131C23.6937 39.6994 23.7741 39.686 23.8546 39.6713Z" fill="#C4C4C4"/>
<path d="M23.4504 39.7397C23.2822 39.7668 23.1133 39.7919 22.9438 39.8148C23.1133 39.7919 23.2822 39.7668 23.4504 39.7397Z" fill="#C4C4C4"/>
<path d="M22.4927 39.8703C22.2958 39.8923 22.0977 39.9118 21.8989 39.9283C22.0977 39.9118 22.2958 39.8923 22.4927 39.8703Z" fill="#C4C4C4"/>
<path d="M22.8804 39.8233C22.7858 39.8358 22.6906 39.8474 22.5957 39.8584C22.6906 39.8474 22.7858 39.8358 22.8804 39.8233Z" fill="#C4C4C4"/>
<path d="M24.4037 39.5633C24.3328 39.5782 24.2616 39.5932 24.1904 39.6075C24.2616 39.5932 24.3328 39.5782 24.4037 39.5633Z" fill="#C4C4C4"/>
<path d="M25.7681 39.2276C25.7108 39.2438 25.6535 39.259 25.5962 39.2749C25.6535 39.259 25.7108 39.2438 25.7681 39.2276Z" fill="#C4C4C4"/>
<path d="M25.3558 39.3393C25.2936 39.3555 25.231 39.3719 25.1685 39.3875C25.231 39.3719 25.2936 39.3558 25.3558 39.3393Z" fill="#C4C4C4"/>
<path d="M24.8162 39.473C24.7503 39.4882 24.6837 39.5026 24.6172 39.5172C24.6837 39.5026 24.7503 39.4882 24.8162 39.473Z" fill="#C4C4C4"/>
<path d="M21.8925 39.9289C21.7862 39.9377 21.6799 39.9457 21.5732 39.9527C21.6799 39.9457 21.7862 39.9377 21.8925 39.9289Z" fill="#C4C4C4"/>
<path d="M40.3884 20C40.3884 8.95599 31.3454 0 20.1942 0C9.04295 0 0 8.95599 0 20C0 31.044 9.04295 40 20.1942 40C20.3128 40 20.4308 39.9976 20.5492 39.9954V24.4263H16.2106V19.4186H20.5492V15.7336C20.5492 11.46 23.1834 9.13391 27.0327 9.13391C28.876 9.13391 30.4604 9.27002 30.9223 9.33075V13.7973H28.268C26.1739 13.7973 25.7684 14.783 25.7684 16.2292V19.4186H30.7757L30.123 24.4263H25.7684V39.2273C34.2092 36.8307 40.3884 29.129 40.3884 20Z" fill="#C4C4C4"/>
<path d="M21.5284 39.9554C21.3183 39.9689 21.1072 39.9796 20.8955 39.9866C21.1072 39.9796 21.3183 39.9689 21.5284 39.9554Z" fill="#C4C4C4"/>
<path d="M20.8846 39.9872C20.773 39.9908 20.6612 39.9936 20.5493 39.9954C20.6612 39.9936 20.773 39.9908 20.8846 39.9872Z" fill="#C4C4C4"/>
</svg>
