<svg width="44" height="53" viewBox="0 0 44 53" fill="none" xmlns="http://www.w3.org/2000/svg">
<path d="M43.5494 30.4513L21.7506 52.1543L0 30.4513L9.16829 21.3191C9.27666 22.4757 9.54641 23.6115 9.96971 24.6937L4.19946 30.4513L21.8308 48.044L39.4621 30.4513L33.6117 24.6137C34.0296 23.5197 34.2939 22.3734 34.3971 21.2071L43.5494 30.4513Z" fill="white"/>
<path d="M21.7508 0C23.8333 2.04359 25.0644 4.79735 25.1969 7.70882C25.078 10.6375 23.8458 13.411 21.7508 15.4656C19.6559 13.411 18.4237 10.6375 18.3047 7.70882C18.4373 4.79735 19.6683 2.04359 21.7508 0Z" fill="white"/>
<path d="M10.8009 29.8916C13.718 29.8685 16.5356 30.9485 18.6869 32.9144C20.6794 35.0635 21.7794 37.8875 21.7644 40.8151C18.7994 40.859 15.9307 39.7655 13.7501 37.7604C11.7871 35.6105 10.7108 32.7999 10.7368 29.8916" fill="white"/>
<path d="M32.698 29.8916C29.7806 29.8668 26.9625 30.9471 24.812 32.9143C22.8195 35.0634 21.7195 37.8875 21.7345 40.8151C24.6725 40.8417 27.5101 39.7492 29.6686 37.7603C31.6402 35.6146 32.7228 32.8026 32.698 29.8916Z" fill="white"/>
<path d="M10.8009 20.2956C13.7162 20.2819 16.5305 21.3606 18.6869 23.3183C20.6804 25.4732 21.7803 28.3025 21.7644 31.235C18.7994 31.2789 15.9306 30.1855 13.7501 28.1803C11.7875 26.0238 10.7115 23.2085 10.7368 20.2956" fill="white"/>
<path d="M32.698 20.2956C29.7821 20.2788 26.9667 21.358 24.812 23.3184C22.8185 25.4732 21.7186 28.3026 21.7345 31.2351C24.6725 31.2618 27.5101 30.1693 29.6686 28.1804C31.6399 26.028 32.7221 23.2113 32.698 20.2956Z" fill="white"/>
<path d="M10.8009 10.3477C13.7162 10.334 16.5305 11.4127 18.6869 13.3704C20.6822 15.5178 21.7826 18.3429 21.7644 21.2711C18.7994 21.315 15.9307 20.2216 13.7501 18.2164C11.7871 16.0665 10.7108 13.2559 10.7368 10.3477" fill="white"/>
<path d="M32.698 10.3476C29.7821 10.3308 26.9667 11.4099 24.812 13.3704C22.8168 15.5177 21.7163 18.3429 21.7346 21.2711C24.6725 21.2977 27.5101 20.2052 29.6686 18.2164C31.6402 16.0706 32.7227 13.2586 32.698 10.3476Z" fill="white"/>
</svg>
