<svg width="48" height="57" viewBox="0 0 48 57" fill="none" xmlns="http://www.w3.org/2000/svg">
<path d="M47.4749 33.1964L23.7112 56.8557L0 33.1964L9.99472 23.2409C10.1129 24.5018 10.4069 25.74 10.8684 26.9197L4.578 33.1964L23.7986 52.3749L43.0192 33.1964L36.6415 26.8326C37.0971 25.64 37.3852 24.3902 37.4977 23.1189L47.4749 33.1964Z" fill="white"/>
<path d="M23.7079 0C25.9782 2.2278 27.3202 5.22978 27.4647 8.40369C27.335 11.5963 25.9917 14.6199 23.7079 16.8597C21.4241 14.6199 20.0809 11.5963 19.9512 8.40369C20.0957 5.22978 21.4377 2.2278 23.7079 0Z" fill="white"/>
<path d="M11.7784 32.586C14.9584 32.5607 18.03 33.7381 20.3753 35.8812C22.5474 38.224 23.7465 41.3026 23.7301 44.4941C20.4979 44.5419 17.3706 43.3499 14.9935 41.164C12.8535 38.8203 11.6802 35.7564 11.7085 32.586" fill="white"/>
<path d="M35.6428 32.5857C32.4625 32.5587 29.3903 33.7364 27.046 35.8809C24.8739 38.2237 23.6747 41.3023 23.6911 44.4939C26.8939 44.5229 29.9872 43.3319 32.3404 41.1638C34.4897 38.8246 35.6698 35.7591 35.6428 32.5857Z" fill="white"/>
<path d="M11.7784 22.125C14.9565 22.11 18.0245 23.286 20.3752 25.4202C22.5484 27.7693 23.7474 30.8536 23.7301 34.0505C20.4979 34.0984 17.3705 32.9063 14.9935 30.7204C12.8539 28.3696 11.6809 25.3004 11.7085 22.125" fill="white"/>
<path d="M35.6428 22.125C32.4641 22.1067 29.3949 23.2831 27.046 25.4203C24.8728 27.7693 23.6738 30.8537 23.6911 34.0506C26.8939 34.0796 29.9872 32.8887 32.3404 30.7205C34.4893 28.3741 35.6691 25.3035 35.6428 22.125Z" fill="white"/>
<path d="M11.7784 11.2802C14.9565 11.2653 18.0245 12.4412 20.3753 14.5754C22.5504 16.9163 23.75 19.9961 23.7301 23.1883C20.4979 23.2361 17.3706 22.0441 14.9935 19.8582C12.8535 17.5145 11.6802 14.4506 11.7085 11.2802" fill="white"/>
<path d="M35.6429 11.2802C32.4641 11.2619 29.395 12.4383 27.046 14.5755C24.8709 16.9164 23.6713 19.9962 23.6912 23.1884C26.894 23.2174 29.9873 22.0264 32.3404 19.8583C34.4897 17.5191 35.6699 14.4536 35.6429 11.2802" fill="white"/>
</svg>
