<svg width="32" height="32" viewBox="0 0 32 32" fill="none" xmlns="http://www.w3.org/2000/svg">
<path d="M20.6665 18.6666H19.6132L19.2399 18.3066C20.8399 16.44 21.6665 13.8933 21.2132 11.1866C20.5865 7.47998 17.4932 4.51998 13.7599 4.06665C8.11986 3.37331 3.37319 8.11998 4.06652 13.76C4.51986 17.4933 7.47986 20.5866 11.1865 21.2133C13.8932 21.6666 16.4399 20.84 18.3065 19.24L18.6665 19.6133V20.6666L24.3332 26.3333C24.8799 26.88 25.7732 26.88 26.3199 26.3333C26.8665 25.7866 26.8665 24.8933 26.3199 24.3466L20.6665 18.6666ZM12.6665 18.6666C9.34652 18.6666 6.66652 15.9866 6.66652 12.6666C6.66652 9.34665 9.34652 6.66665 12.6665 6.66665C15.9865 6.66665 18.6665 9.34665 18.6665 12.6666C18.6665 15.9866 15.9865 18.6666 12.6665 18.6666Z" fill="white"/>
</svg>
